<svg xmlns="http://www.w3.org/2000/svg" viewBox="0 0 36 45" x="0px" y="0px"><path d="M32,25H13a1,1,0,0,0,0,2H32a1,1,0,0,0,0-2Z"/><path d="M32,17H21a1,1,0,0,0,0,2H32a1,1,0,0,0,0-2Z"/><path d="M32,9H13a1,1,0,0,0,0,2H32a1,1,0,0,0,0-2Z"/><path d="M4.71,11.29a1,1,0,0,0-1.42,1.42L8.59,18l-5.3,5.29a1,1,0,0,0,0,1.42,1,1,0,0,0,1.42,0l6-6a1,1,0,0,0,0-1.42Z"/><text x="0" y="51" fill="#000000" font-size="5px" font-weight="bold" font-family="'Helvetica Neue', Helvetica, Arial-Unicode, Arial, Sans-serif">Created by Eva Ratkus</text><text x="0" y="56" fill="#000000" font-size="5px" font-weight="bold" font-family="'Helvetica Neue', Helvetica, Arial-Unicode, Arial, Sans-serif">from the Noun Project</text></svg>